<svg id="Layer_1" data-name="Layer 1" xmlns="http://www.w3.org/2000/svg" viewBox="0 0 122.88 122.88"><defs><style>.cls-1{fill:#d92d27;}.cls-1,.cls-2{fill-rule:evenodd;}.cls-2{fill:#fff;}</style></defs><title>speed-limit-120-sign</title><path class="cls-1" d="M118.22,38a61.53,61.53,0,1,1-13.34-20,61.29,61.29,0,0,1,13.34,20ZM61.44,12.08A49.36,49.36,0,1,1,12.08,61.44,49.36,49.36,0,0,1,61.44,12.08Z"/><path class="cls-2" d="M61.44,12.08A49.36,49.36,0,1,1,12.08,61.44,49.36,49.36,0,0,1,61.44,12.08Z"/><path d="M27.85,80.58V51.47H21.77V45.08L29,42h8.86V80.58Zm14.37,0V72.64l11.9-12.15A22.78,22.78,0,0,0,56,58.37a9.52,9.52,0,0,0,1.21-1.9,4.48,4.48,0,0,0,.44-1.91,3.52,3.52,0,0,0-.41-1.78,2.39,2.39,0,0,0-1.27-1,6.36,6.36,0,0,0-2.19-.31h-11V43.54q2.52-.57,5.64-1.06A46.73,46.73,0,0,1,55.72,42a16.86,16.86,0,0,1,7.14,1.24,7.39,7.39,0,0,1,3.71,3.66,14.29,14.29,0,0,1,1.1,5.92A14.75,14.75,0,0,1,67,57.4a14.39,14.39,0,0,1-1.93,3.86A27.85,27.85,0,0,1,62,64.87l-6.6,6.74H68.7v9Zm40.45.31a12.36,12.36,0,0,1-5.85-1.24,7.83,7.83,0,0,1-3.48-3.58,12.81,12.81,0,0,1-1.13-5.59V52.91a13.2,13.2,0,0,1,1.21-6A8.25,8.25,0,0,1,77,43.25,12,12,0,0,1,82.72,42h8.34a11,11,0,0,1,5.49,1.26,8.13,8.13,0,0,1,3.4,3.69,13.78,13.78,0,0,1,1.16,6V70.48a10.76,10.76,0,0,1-2.6,7.63C96.77,80,94.28,80.89,91,80.89Zm2.47-9h3.09a2.57,2.57,0,0,0,2.89-3v-15a3,3,0,0,0-.73-2.39A2.63,2.63,0,0,0,88.64,51H84.78a2.45,2.45,0,0,0-2,.72,3.43,3.43,0,0,0-.62,2.26V68.88a3.19,3.19,0,0,0,.72,2.35,3.11,3.11,0,0,0,2.22.69Z"/></svg>